<svg xmlns="http://www.w3.org/2000/svg" width="559" height="447" viewBox="0 0 559 447" version="1.1"><path d="M 242.500 81.495 C 241.950 81.680, 238.457 82.778, 234.737 83.933 C 231.017 85.089, 225.044 87.377, 221.462 89.017 C 217.880 90.658, 214.723 92, 214.445 92 C 214.167 92, 209.791 94.522, 204.720 97.604 C 191.167 105.843, 173.173 120.853, 174.424 122.877 C 174.834 123.540, 174.554 123.766, 173.718 123.445 C 172.867 123.119, 171.207 124.548, 169.416 127.153 C 167.812 129.484, 165.437 132.541, 164.138 133.946 C 159.826 138.609, 155.882 145.001, 156.601 146.163 C 157.024 146.847, 156.868 147.037, 156.215 146.633 C 153.038 144.669, 134.911 187.487, 136.716 192.695 C 136.943 193.352, 136.640 194.804, 136.042 195.922 C 135.444 197.039, 134.749 201.138, 134.498 205.029 C 134.247 208.921, 133.764 214.155, 133.424 216.662 C 132.675 222.184, 133.772 230.628, 135.070 229.330 C 135.571 228.829, 136.084 226.074, 136.208 223.209 C 136.451 217.637, 137.236 216.803, 139.232 220 C 139.919 221.100, 141.273 222, 142.241 222 C 143.529 222, 144 222.803, 144 225 C 144 226.650, 144.450 228, 145 228 C 145.550 228, 146 226.425, 146 224.500 C 146 222.575, 146.470 221, 147.045 221 C 147.697 221, 147.857 219.587, 147.470 217.250 C 147.009 214.460, 147.121 213.884, 147.910 215 C 148.753 216.194, 148.973 215.878, 148.985 213.453 C 149.029 204.577, 155.519 182.245, 162.152 168.143 C 165.960 160.048, 175.221 145.260, 177.419 143.765 C 178.014 143.361, 178.179 143.024, 177.787 143.015 C 177.395 143.007, 179.726 140.205, 182.966 136.789 C 186.206 133.374, 188.639 130.225, 188.372 129.794 C 188.106 129.362, 189.038 128.484, 190.444 127.844 C 191.850 127.203, 193 126.301, 193 125.839 C 193 125.378, 193.563 124.990, 194.250 124.978 C 195.966 124.949, 206.059 116.392, 205.287 115.621 C 204.946 115.279, 205.481 115, 206.475 115 C 207.470 115, 211.101 113.221, 214.545 111.046 C 219.953 107.630, 235.456 100.639, 240.004 99.565 C 247.467 97.802, 250.166 96.605, 252.037 94.226 C 257.117 87.767, 250.419 78.826, 242.500 81.495 M 262.120 107.537 C 239.806 111.020, 219.027 120.983, 201.314 136.692 C 190.655 146.145, 176.819 165.281, 178.582 168.132 C 179.037 168.869, 178.878 169.042, 178.155 168.595 C 177.397 168.127, 177 168.761, 177 170.441 C 177 172.990, 178.057 173.530, 182.317 173.158 C 183.619 173.045, 183.980 173.496, 183.590 174.750 C 183.291 175.712, 183.461 177.162, 183.969 177.972 C 184.755 179.225, 184.994 179.180, 185.575 177.665 C 185.951 176.686, 186.862 176.117, 187.600 176.400 C 189.274 177.042, 190.609 175.709, 197.950 166.065 C 204.642 157.275, 215.549 146.821, 223.618 141.466 C 244.246 127.774, 271.913 121.560, 295.193 125.390 C 307.175 127.362, 311.653 128.817, 325.153 135.128 C 335.571 139.998, 335.884 140.075, 339.323 138.639 C 343.357 136.953, 345 134.458, 345 130.020 C 345 125.714, 341.564 122.603, 331.713 117.988 C 309.147 107.417, 285.572 103.877, 262.120 107.537 M 199.455 237.455 C 195.431 241.478, 196.495 249.024, 202.928 262.089 C 211.708 279.922, 225.936 293.872, 244.089 302.446 C 256.146 308.141, 262.674 309.490, 278.200 309.495 C 293.169 309.500, 294.386 309.089, 294.508 303.987 C 294.571 301.370, 294.167 300.934, 291.147 300.368 L 287.715 299.724 290.107 297.814 C 291.423 296.763, 293.400 295.506, 294.500 295.019 C 295.914 294.394, 294.596 294.140, 290 294.150 C 274.971 294.185, 259.838 290.992, 249 285.500 C 233.137 277.462, 219.720 261.384, 214.900 244.637 C 212.243 235.407, 204.912 231.997, 199.455 237.455" stroke="none" fill="#dd1353" fill-rule="evenodd"/><path d="M 232.043 83.562 C 189.551 97.896, 154.552 132.776, 139.705 175.584 C 133.753 192.748, 131.582 206.057, 131.647 225 C 131.709 243.282, 133.569 254.860, 139.114 271.467 C 153.022 313.127, 184.258 346.108, 226.193 363.413 C 233.370 366.374, 236.124 367, 241.976 367 C 254.203 367, 258.989 363.216, 255.972 355.933 C 254.469 352.304, 252.211 351.065, 240.794 347.603 C 202.481 335.984, 170.501 304.616, 157.599 266 C 152.817 251.687, 151 240.259, 151 224.500 C 151 190.307, 162.992 159.988, 186.223 135.446 C 201.304 119.514, 221.984 106.599, 242.085 100.559 C 253.524 97.122, 257.182 93.112, 254.977 86.429 C 253.658 82.435, 250.160 79.994, 245.785 80.017 C 243.978 80.027, 237.794 81.622, 232.043 83.562 M 242.500 81.495 C 241.950 81.680, 238.457 82.778, 234.737 83.933 C 231.017 85.089, 225.044 87.377, 221.462 89.017 C 217.880 90.658, 214.723 92, 214.445 92 C 214.167 92, 209.791 94.522, 204.720 97.604 C 191.167 105.843, 173.173 120.853, 174.424 122.877 C 174.834 123.540, 174.554 123.766, 173.718 123.445 C 172.867 123.119, 171.207 124.548, 169.416 127.153 C 167.812 129.484, 165.437 132.541, 164.138 133.946 C 159.826 138.609, 155.882 145.001, 156.601 146.163 C 157.024 146.847, 156.868 147.037, 156.215 146.633 C 153.038 144.669, 134.911 187.487, 136.716 192.695 C 136.943 193.352, 136.640 194.804, 136.042 195.922 C 135.444 197.039, 134.749 201.138, 134.498 205.029 C 134.247 208.921, 133.764 214.155, 133.424 216.662 C 132.675 222.184, 133.772 230.628, 135.070 229.330 C 135.571 228.829, 136.084 226.074, 136.208 223.209 C 136.451 217.637, 137.236 216.803, 139.232 220 C 139.919 221.100, 141.273 222, 142.241 222 C 143.529 222, 144 222.803, 144 225 C 144 226.650, 144.450 228, 145 228 C 145.550 228, 146 226.425, 146 224.500 C 146 222.575, 146.470 221, 147.045 221 C 147.697 221, 147.857 219.587, 147.470 217.250 C 147.009 214.460, 147.121 213.884, 147.910 215 C 148.753 216.194, 148.973 215.878, 148.985 213.453 C 149.029 204.577, 155.519 182.245, 162.152 168.143 C 165.960 160.048, 175.221 145.260, 177.419 143.765 C 178.014 143.361, 178.179 143.024, 177.787 143.015 C 177.395 143.007, 179.726 140.205, 182.966 136.789 C 186.206 133.374, 188.639 130.225, 188.372 129.794 C 188.106 129.362, 189.038 128.484, 190.444 127.844 C 191.850 127.203, 193 126.301, 193 125.839 C 193 125.378, 193.563 124.990, 194.250 124.978 C 195.966 124.949, 206.059 116.392, 205.287 115.621 C 204.946 115.279, 205.481 115, 206.475 115 C 207.470 115, 211.101 113.221, 214.545 111.046 C 219.953 107.630, 235.456 100.639, 240.004 99.565 C 247.467 97.802, 250.166 96.605, 252.037 94.226 C 257.117 87.767, 250.419 78.826, 242.500 81.495 M 309.563 83.109 C 302.560 84.130, 301.515 84.932, 302.432 88.586 C 303.646 93.424, 308.841 97.471, 317 99.935 C 339.252 106.657, 363.194 122.129, 377.843 139.254 C 392.692 156.614, 402.053 175.321, 407.047 197.618 C 409.947 210.567, 410.215 236.233, 407.577 248.500 C 402.045 274.230, 390.420 296.387, 373.007 314.386 C 357.629 330.282, 340.009 341.254, 319.057 347.982 C 307.825 351.588, 305 353.946, 305 359.712 C 305 364.409, 309.541 369.003, 314.173 368.992 C 323.324 368.971, 348.374 358.307, 363.699 347.909 C 383.032 334.791, 402.247 313.146, 412.553 292.879 C 424.893 268.613, 431.206 238.421, 428.943 214.500 C 423.639 158.449, 393.543 114.232, 344.171 89.955 C 328.332 82.166, 323.113 81.134, 309.563 83.109 M 278.250 105.689 C 279.212 105.941, 280.788 105.941, 281.750 105.689 C 282.712 105.438, 281.925 105.232, 280 105.232 C 278.075 105.232, 277.288 105.438, 278.250 105.689 M 265.250 106.689 C 266.212 106.941, 267.788 106.941, 268.750 106.689 C 269.712 106.438, 268.925 106.232, 267 106.232 C 265.075 106.232, 264.288 106.438, 265.250 106.689 M 292.250 106.689 C 293.212 106.941, 294.788 106.941, 295.750 106.689 C 296.712 106.438, 295.925 106.232, 294 106.232 C 292.075 106.232, 291.288 106.438, 292.250 106.689 M 226.750 118.064 C 223.588 119.696, 221 121.256, 221 121.530 C 221 121.977, 232.900 116.312, 233.917 115.381 C 235.226 114.183, 231.745 115.486, 226.750 118.064 M 212.489 126.644 C 202.956 132.979, 188.248 148.010, 181.674 158.135 C 167.287 180.294, 161.713 198.679, 161.703 224 C 161.695 247.163, 167.249 267.626, 177.039 280.500 C 184.859 290.784, 191.942 292.384, 195.608 284.697 C 197.179 281.402, 197.141 281.241, 192.729 272.429 C 183.229 253.456, 180.497 240.941, 181.264 219.914 C 181.859 203.612, 183.672 195.774, 189.945 182.381 C 196.814 167.715, 205.866 156.175, 217.804 146.864 C 225.356 140.974, 227.263 139.292, 225 140.521 C 218.117 144.256, 204.389 157.409, 196.638 167.694 C 190.601 175.703, 189.229 177.025, 187.600 176.400 C 186.862 176.117, 185.951 176.686, 185.575 177.665 C 184.994 179.180, 184.755 179.225, 183.969 177.972 C 183.461 177.162, 183.291 175.712, 183.590 174.750 C 183.980 173.496, 183.619 173.045, 182.317 173.158 C 178.057 173.530, 177 172.990, 177 170.441 C 177 168.761, 177.397 168.127, 178.155 168.595 C 178.878 169.042, 179.037 168.869, 178.582 168.132 C 176.772 165.205, 190.911 145.823, 201.890 136.179 C 206.075 132.503, 211.863 127.987, 214.750 126.143 C 219.277 123.253, 220.786 122, 219.739 122 C 219.596 122, 216.333 124.090, 212.489 126.644 M 276.280 124.736 C 278.909 124.943, 282.959 124.940, 285.280 124.731 C 287.601 124.521, 285.450 124.352, 280.500 124.355 C 275.550 124.358, 273.651 124.530, 276.280 124.736 M 268.500 138.044 C 240.175 142.436, 215.185 160.298, 203.503 184.500 C 198.037 195.825, 196.378 202.975, 197.903 208.639 C 199.270 213.715, 201.179 215.400, 205.566 215.400 C 209.920 215.400, 213.677 211.922, 215.110 206.565 C 215.708 204.329, 217.996 198.725, 220.194 194.111 C 223.376 187.430, 225.850 184.054, 232.345 177.529 C 241.459 168.373, 247.780 164.395, 259.398 160.499 C 285.341 151.801, 314.691 160.455, 332.317 182 C 337.317 188.111, 343.189 199.183, 344.972 205.861 C 346.542 211.739, 350.189 215, 355.191 215 C 357.980 215, 359.778 214.313, 361.505 212.586 C 365.137 208.954, 365.466 205.905, 363.037 198.386 C 351.730 163.389, 320.545 139.399, 284 137.585 C 278.775 137.326, 271.800 137.532, 268.500 138.044 M 365.557 162.223 C 363.201 165.586, 363.649 168.692, 367.593 176.313 C 385.433 210.787, 383.707 248.882, 362.894 279.997 C 344.419 307.618, 313.356 324.031, 279.640 323.987 C 263.382 323.966, 244.289 319.007, 231.322 311.439 C 225.628 308.115, 221.585 308.261, 217.923 311.923 C 214.279 315.567, 213.884 321.425, 217.051 324.825 C 219.289 327.226, 229.759 332.764, 238.181 335.999 C 270.479 348.409, 310.635 345.139, 339.728 327.730 C 369.212 310.086, 388.576 283.614, 396.701 249.839 C 398.945 240.511, 399.184 212.946, 397.111 202.500 C 395.369 193.723, 390.581 179.806, 387.420 174.334 C 380.837 162.936, 369.468 156.638, 365.557 162.223 M 354.597 234.057 C 348.556 235.069, 347.789 235.862, 344.977 244 C 338.117 263.860, 327.048 276.699, 309.500 285.151 C 290.361 294.369, 269.553 294.256, 250 284.826 C 238.171 279.122, 226.128 267.139, 220.159 255.134 C 217.872 250.533, 216 247.285, 216 247.917 C 216 248.549, 217.186 251.414, 218.635 254.283 C 231.935 280.620, 256.294 294.227, 290 294.150 C 294.596 294.140, 295.914 294.394, 294.500 295.019 C 293.400 295.506, 291.423 296.763, 290.107 297.814 L 287.715 299.724 291.147 300.368 C 294.167 300.934, 294.571 301.370, 294.508 303.987 C 294.469 305.624, 293.903 307.497, 293.251 308.149 C 291.911 309.489, 270.735 309.945, 262.500 308.812 L 257.500 308.124 263 309.596 C 267.030 310.675, 272.375 310.968, 283 310.693 C 296.194 310.350, 298.378 310.021, 307.244 307.034 C 324.966 301.064, 341.398 288.772, 351.750 273.740 C 360.926 260.416, 363.972 252.506, 363.989 241.950 C 364 235.665, 362.905 232.854, 360.550 233.118 C 359.973 233.182, 357.294 233.605, 354.597 234.057 M 198.923 236.923 C 195.882 239.964, 195.101 245.008, 196.975 249.500 C 197.485 250.721, 197.601 249.294, 197.274 245.836 C 196.789 240.709, 196.983 239.926, 199.323 237.586 C 202.845 234.064, 207.812 234.085, 211.364 237.636 C 212.814 239.086, 214 239.794, 214 239.209 C 214 237.151, 208.730 234, 205.288 234 C 202.817 234, 201.022 234.825, 198.923 236.923 M 198.071 252.230 C 197.956 253.414, 201.214 261.120, 201.646 260.687 C 201.864 260.470, 201.164 258.313, 200.092 255.896 C 199.019 253.478, 198.109 251.828, 198.071 252.230 M 205.500 268.500 C 208.111 273.578, 219.882 288.452, 220.668 287.665 C 220.904 287.429, 219.163 285.125, 216.799 282.544 C 214.434 279.964, 210.925 275.448, 209 272.508 C 203.321 263.836, 202.790 263.229, 205.500 268.500 M 223.500 289.965 C 226.058 292.879, 235.006 298.967, 241.717 302.362 C 249.853 306.477, 249.367 305.407, 241.109 301.024 C 237.044 298.867, 230.969 294.983, 227.609 292.395 C 224.249 289.806, 222.400 288.713, 223.500 289.965 M 251.500 306.536 C 253.150 307.292, 255.175 307.896, 256 307.879 C 256.825 307.862, 255.925 307.241, 254 306.500 C 249.434 304.742, 247.638 304.768, 251.500 306.536" stroke="none" fill="#540862" fill-rule="evenodd"/></svg>