<svg xmlns="http://www.w3.org/2000/svg" width="200" height="200" viewBox="0 0 200 200" version="1.1"><path d="" stroke="none" fill="#847cfc" fill-rule="evenodd"/><path d="M 81 25.444 C 52.250 31.515, 30.046 49.045, 20.875 72.914 C 17.864 80.749, 17.165 97.113, 19.466 105.920 C 22.395 117.132, 27.633 126.051, 36.809 135.449 L 42.717 141.500 37.907 154.500 C 32.272 169.727, 32.009 172.177, 35.646 175.548 C 40.019 179.601, 42.628 178.832, 61.464 167.936 L 78.863 157.872 84.933 159.067 C 92.835 160.621, 115.523 159.741, 123.387 157.576 C 140.393 152.892, 151.716 146.471, 163.049 135.088 C 176.325 121.753, 182 108.850, 182 92 C 182 75.151, 176.326 62.249, 163.049 48.910 C 151.670 37.476, 140.221 30.962, 123.500 26.406 C 115.284 24.167, 89.779 23.590, 81 25.444 M 90 33.031 C 60.436 36.532, 36.203 53.958, 28.856 77 C 26.041 85.826, 26.046 98.204, 28.868 107 C 31.637 115.632, 37.661 124.596, 45.551 131.826 C 49.139 135.114, 51.995 138.570, 51.988 139.617 C 51.982 140.653, 49.750 147.556, 47.029 154.957 C 44.308 162.359, 42.191 168.524, 42.325 168.658 C 42.459 168.792, 50.332 164.376, 59.822 158.845 L 77.076 148.788 83.788 150.085 C 93.858 152.032, 109.906 151.618, 120.209 149.146 C 152.416 141.419, 173.543 118.417, 173.230 91.421 C 172.866 60.067, 143.501 34.989, 104.500 32.726 C 100.100 32.470, 93.575 32.608, 90 33.031" stroke="none" fill="#8c7cfc" fill-rule="evenodd"/></svg>