<?xml version="1.0" encoding="UTF-8"?>
<!DOCTYPE svg PUBLIC "-//W3C//DTD SVG 1.1//EN" "http://www.w3.org/Graphics/SVG/1.1/DTD/svg11.dtd">
<svg xmlns="http://www.w3.org/2000/svg" version="1.1" width="231px" height="140px" style="shape-rendering:geometricPrecision; text-rendering:geometricPrecision; image-rendering:optimizeQuality; fill-rule:evenodd; clip-rule:evenodd" xmlns:xlink="http://www.w3.org/1999/xlink">
<g><path style="opacity:0.929" fill="#265e8f" d="M 88.5,45.5 C 87.7326,46.172 87.0659,47.0053 86.5,48C 79.9155,49.5508 73.2488,50.3841 66.5,50.5C 66.7592,54.2396 66.4259,57.9062 65.5,61.5C 70.2973,63.3743 75.1307,63.7076 80,62.5C 82.5448,63.5218 85.0448,64.6884 87.5,66C 90.3112,69.2935 89.9779,72.2935 86.5,75C 83.7919,76.0695 81.1253,77.2361 78.5,78.5C 73.5589,77.902 68.5589,77.902 63.5,78.5C 62.6745,82.1359 62.0078,85.8026 61.5,89.5C 65.4172,90.6367 69.4172,91.47 73.5,92C 75.2932,94.7953 77.4598,97.2953 80,99.5C 80.9048,105.031 78.5715,107.698 73,107.5C 64.5376,105.844 56.0376,104.51 47.5,103.5C 46.3933,94.5239 47.06,85.6905 49.5,77C 48.8095,75.9326 48.3095,74.7659 48,73.5C 46.0227,83.954 41.5227,93.1207 34.5,101C 30.7261,102.183 27.5594,101.349 25,98.5C 22.7105,92.9563 20.0439,87.6229 17,82.5C 13.6292,88.3571 11.6292,94.6904 11,101.5C 8.35571,103.31 5.85571,105.31 3.5,107.5C 2.39636,104.95 1.06303,102.617 -0.5,100.5C -0.5,96.8333 -0.5,93.1667 -0.5,89.5C 1.18293,74.9274 4.3496,60.5941 9,46.5C 13.6146,42.0271 18.7812,41.3604 24.5,44.5C 23.3398,53.0305 25.0065,61.0305 29.5,68.5C 32.5966,60.112 34.4299,51.4453 35,42.5C 37.8333,38.8333 40.6667,35.1667 43.5,31.5C 45.2222,34.2787 46.3888,37.2787 47,40.5C 47.3333,48.8333 47.6667,57.1667 48,65.5C 52.0602,59.5483 52.5602,53.215 49.5,46.5C 51.9694,42.1993 54.6361,38.0326 57.5,34C 65.5,34.6667 73.5,34.6667 81.5,34C 86.9547,35.9509 89.288,39.7842 88.5,45.5 Z"/></g>
<g><path style="opacity:0.932" fill="#255d8f" d="M 88.5,45.5 C 99.9344,31.5032 113.101,29.8365 128,40.5C 128.743,47.448 125.743,52.1146 119,54.5C 117.195,66.6216 115.695,78.7882 114.5,91C 116.181,98.4672 113.681,103.967 107,107.5C 104.447,106.777 102.28,105.444 100.5,103.5C 99.5006,88.1811 99.1673,72.8478 99.5,57.5C 91.4303,57.1121 87.7636,53.1121 88.5,45.5 Z"/></g>
<g><path style="opacity:0.907" fill="#265d8e" d="M 173.5,33.5 C 176.099,33.5494 178.266,34.5494 180,36.5C 180.114,39.833 179.781,43.1663 179,46.5C 173.549,54.2861 167.715,61.7861 161.5,69C 167.965,78.8914 171.965,89.7247 173.5,101.5C 170.348,102.041 167.848,101.041 166,98.5C 160.671,92.5155 156.337,85.8489 153,78.5C 145.233,87.9387 137.066,97.1054 128.5,106C 127.552,106.483 126.552,106.649 125.5,106.5C 125.252,100.074 126.752,94.0742 130,88.5C 134.805,81.0512 139.971,73.8845 145.5,67C 142.215,62.2688 139.048,57.4355 136,52.5C 135.113,47.9283 135.78,43.595 138,39.5C 140.224,37.946 142.724,36.946 145.5,36.5C 147.543,43.858 150.876,50.5247 155.5,56.5C 162.244,49.308 168.244,41.6414 173.5,33.5 Z"/></g>
<g><path style="opacity:0.929" fill="#255e8e" d="M 230.5,53.5 C 230.5,54.1667 230.5,54.8333 230.5,55.5C 223.33,63.5001 215.496,71.1668 207,78.5C 204.959,82.0838 202.792,85.5838 200.5,89C 211.268,90.6432 221.268,94.1432 230.5,99.5C 230.5,100.833 230.5,102.167 230.5,103.5C 228.323,106.831 225.156,108.164 221,107.5C 212.518,106.088 204.018,104.755 195.5,103.5C 191.178,104.33 187.011,105.663 183,107.5C 180.148,106.304 178.648,104.137 178.5,101C 181.655,93.5478 184.821,86.0478 188,78.5C 194.195,71.6409 200.362,64.8076 206.5,58C 201.204,54.7686 195.704,51.9352 190,49.5C 187.986,43.4 189.486,38.2334 194.5,34C 201.151,33.8222 206.818,36.1555 211.5,41C 219.85,42.1975 226.184,46.3641 230.5,53.5 Z"/></g>
</svg>
